<svg version="1" xmlns="http://www.w3.org/2000/svg" width="1333.333" height="1333.333" viewBox="0 0 1000.000000 1000.000000"><path d="M721 315.5c-1.8 2.1-.7 13.4 1.5 17.3 1.8 3 1.8 3-1.5 8.1-3.7 5.8-3.6 8.1.1 2.7l2.4-3.5 2.2 2.1c2.1 2 7.2 2.5 12.8 1.4 1.1-.3 3.5-.5 5.3-.5 1.7-.1 3.2-.5 3.2-1.1 0-1.4-7.7-6.1-11.9-7.2l-3.5-1 4.9-4.2c3.4-3 4.7-4.7 4.2-5.9-.9-2.5-1.7-2.2-7.4 2.8-2.8 2.5-5.3 4.5-5.5 4.5-.2 0-.4-2.2-.4-5-.1-4.6-2.8-12-4.5-12-.4 0-1.2.7-1.9 1.5zM275.4 319.6c-1.4 3-2.1 6.2-1.9 9 .1 2.4.1 4.4-.1 4.4s-2.6-2-5.4-4.5c-5.5-4.8-8-5.7-8-2.5 0 1.1 1.9 3.4 4.6 5.4 4 3 4.4 3.7 2.8 4.2-4.4 1.5-10.1 4.4-12.4 6.3l-2.5 1.9 2.5.6c1.4.3 5.9.7 10 1 6.6.4 7.7.2 9.7-1.6 1.3-1.2 2.4-2 2.6-1.7 3.1 3.7 6.8 10.5 8 14.5 1.3 4.5 1.3 5.4 0 8.5-.9 1.9-3 7.4-4.8 12.4-2.4 6.4-3.5 8.5-4 7.2-.7-1.6-3.5-2.5-3.5-1 0 .5.8 2.1 1.8 3.8 1.7 2.7 1.7 3.5.6 7.8-.7 2.7-1.6 7.7-1.9 11.3-.4 3.5-1 6.4-1.4 6.4-1.3 0-4.1-12.6-3.6-16.4.2-2.1-.2-5.3-.9-7-1.8-4.4-7-9.6-9.5-9.6-1.9 0-2 .4-1.6 7 .4 6.6 2.3 12.1 4.4 13.4.5.4 2 .7 3.4.8 2.2.2 2.8 1.2 5 8.3 2.2 6.8 2.6 9.8 2.6 20-.1 6.6.1 13.9.4 16.2.3 2.4.4 4.3.2 4.3-1.2 0-3.6-5.8-4-9.7-.3-2.6-1.1-5.3-1.9-6.1-1.2-1.2-1.6-1.1-2.6.7-.9 1.7-.9 2.6.1 3.7 2.6 3.1.1 2.2-4.7-1.8-3.4-2.8-4.8-4.7-4.7-6.2.7-6.1.3-8.7-2.1-13.4-3.2-6.4-4.2-7-5-3.1-1.1 5.5-.7 9.4 1.4 13.4 1.1 2.2 2 4 2 4.2 0 .1-1.9-1-4.2-2.6-5.4-3.7-10-4.7-11.7-2.7-1 1.2-.6 1.8 2.8 3.6 2.3 1.1 4.1 1.8 4.1 1.6 0-.3 1.4 0 3.1.6l3.1 1-4 2.4c-3.4 2-9.2 8.8-9.2 10.7 0 .4 1 .5 2.3.3 1.2-.3 2.2-.5 2.2-.6 0-.1 1-.3 2.2-.6 1.1-.2 4.6-1.3 7.7-2.5 4.2-1.5 5.8-2.6 6.2-4.4l.6-2.4 4.1 3.2c5.7 4.4 5.9 4.6 9.4 9.5 1.8 2.4 3.5 5.8 3.8 7.5 3.4 16.8 7.3 29.1 13.6 42.5 4.2 9 13.6 24.4 19.9 32.4 2.6 3.4 1.4 3.7-2 .5-1.4-1.2-5.1-3.6-8.3-5.2-12.5-6.5-23.6-19.7-34.2-40.8-3.8-7.5-7.1-13.5-7.3-13.3-.2.3.1 1.4.8 2.5.6 1.2 2.6 5.7 4.5 10.1 2.9 6.8 3.2 7.9 1.5 7-1-.5-3.5-3-5.4-5.4-3.2-3.8-3.6-5-3.6-10 0-4.9-.2-5.6-2-5.6-2.4 0-2.6 2.6-.4 5.1.9 1 1.4 2.3 1.2 3-.2.7-1.9-.9-3.8-3.6-2.9-4.2-3.2-5.2-2.3-7.6 1.4-3.5-.7-6-3.2-3.9-1.8 1.5-1.9 3.6-.2 4.7.7.4 1.8 2.1 2.6 3.8l1.3 3-3.1-2.9c-1.7-1.6-3.3-3.8-3.7-4.8-.6-1.9-3.9-2.5-4.9-.9-.7 1.2 2.4 4.3 3.8 3.8.6-.2 2.4 1.1 4 2.9 1.5 1.8 3.6 3.6 4.5 3.9.9.3 3.7 3.2 6.2 6.5 2.5 3.4 6.2 7.2 8.2 8.6 2.1 1.5 4.9 4.9 6.4 7.7 4.9 9.4 13.2 18.8 21.7 24.5 2 1.3 3.7 2.9 3.7 3.4s-.4.7-.8.4c-.5-.3-2.1-.7-3.5-1-4.8-.9-11.2-4.6-12.9-7.7-1.8-3.1-4.2-3.8-5.1-1.6-.7 1.9.9 4.2 3 4.3 1.1.1 3.8 1.3 6.1 2.8 2.3 1.4 4.9 2.6 5.9 2.6 2.7 0 .2 1.8-3.4 2.4-2.1.4-3.7.1-4.8-1-1.9-2-4.5-1.1-4.5 1.5 0 2.1 2.6 3.6 3.5 2.1.4-.6 2.1-1 3.8-1 1.8 0 4.5-.7 6.1-1.5 1.8-1 4.4-1.4 6.8-1.1 5 .6 18.4 8.6 26.3 15.6 10.7 9.6 12.2 10.8 18.3 14.9 3.3 2.3 6.8 4.1 7.8 4 1.5 0 1.6-.2.4-.7-2.9-1.3-13-9.2-19.3-15.2-7.1-6.6-10.9-13.8-8.7-16.5.7-.8.9-2.2.6-3.1-.6-1.6-.8-1.6-1.9.1-1.2 1.5-1.5 1.1-2.5-3.6-2.4-10.8-2.3-11.7.9-12.8 2.8-1 3.6-2.1 2.3-3.4-.3-.3-1.6-.2-2.9.3-2.1.8-2.3.6-2.3-3.7-.1-2.5-.4-4.8-.7-5.1-.5-.6-.9 7.1-.5 12.3l.2 3-1.9-2.5c-1.3-1.6-1.9-3.7-1.7-6 .3-4.4-1.2-7.3-3.5-6.7-1 .2-2.3-.4-3-1.4-1.2-2.1-4.6-2.5-5.6-.8-1.2 1.9 1.6 6.6 5.1 8.5 2.8 1.5 3.6 1.6 4.3.6.7-1.1.9-1.1 1.4.2.4.9.2 1.6-.4 1.6-.6 0-.8.4-.4.9.3.5-.6 1.1-2 1.3-3.9.5-2.5 2.3 1.6 2.1 3.8-.2 5.7 1.7 6.5 6.4.4 2.1.2 2.4-1.6 1.8-3-.9-2.4 1.1 1 3.5 3.7 2.6 4 5 .6 4.7-5.4-.4-20.4-24.9-28-45.9l-2.4-6.7 1.8-6.4c1-3.5 3.1-8.4 4.7-10.8 2.4-3.6 2.8-5.2 2.7-10.5-.1-3.8-.8-7.1-1.7-8.4-1.6-2.3-1.6-2.3-4.6 2.5-4.6 7.3-5.2 14.4-1.6 18.5 1.1 1.2 1.1 2.4.1 6.2-.6 2.6-1.4 5-1.7 5.3-.3.3-1.4-3.2-2.3-7.7-1-4.6-2.1-10-2.6-12.1-.4-2-.8-6.4-.8-9.6.1-3.2-.2-6.3-.5-6.8-.7-1.1-.2-18 .8-26.8.4-3.3 1.8-10.7 3.1-16.4 2.2-9.1 3.1-11.2 7.8-17.5 8.4-11.3 8.1-11.1 12.5-7.6 3.1 2.6 5 3.1 12.2 3.9 6.5.7 8.7.5 9.8-.5 1.2-1.1 1.2-1.6.1-2.8-1.6-2.1-3.6-2-4.4 0-.9 2.4-12.5 1.4-16-1.4l-2.6-2 3.8-.7c2-.4 6-1.7 8.7-3 2.8-1.2 5.8-2.5 6.8-2.9 2.5-.8 1.7-4-1.1-4.4-1.7-.3-2.2.2-2.2 1.7s-1.4 2.8-4.7 4.4c-4.3 2.1-12.3 4.2-12.3 3.2s16.9-14.5 18.2-14.5c2.4 0 3.8-2.1 2.7-4.2-1.8-3.4-5.5-2.1-5 1.9.1.6-2 2.9-4.6 5-2.6 2.1-5.4 4.4-6.1 5-2 1.9-2.3 1.6-1.6-1.5 1.1-4.5 4.1-9.6 7.5-13 3.6-3.5 3.1-5.6-1.2-5-2 .2-2.3.8-2.1 3 .2 1.6-.5 4-1.6 5.5-2.2 3.3-4.2 8.7-4.2 11.7 0 1.2-2.2 4.3-5.1 7.1-2.8 2.7-5.9 6.5-7.1 8.2-2.4 4-4.5 4.4-2.4.5 3-5.7 3.7-8.9 3-13.8-.3-2.7-.6-6-.6-7.4 0-1.4.1-4.2.2-6.4.1-2.1-.1-4-.4-4.3-1.1-1.1-2.6 1-2.6 3.5v2.7l-2.1-2.5c-4.8-6.1-5.2-7.6-3-13.6 2.4-6.2 2.7-13.1.7-15.7-.7-.9-1.5-1.7-1.7-1.7-.2 0-1.4 2.1-2.5 4.6zm41.4 216.9c.6 1.4.9 2.5.7 2.5-.8 0-6.4-6.4-6.5-7.3 0-1.5 4.7 2.4 5.8 4.8zM569 337c0 .5.5 1 1.1 1 .5 0 .7-.5.4-1-.3-.6-.8-1-1.1-1-.2 0-.4.4-.4 1zM575 337c0 .5.5 1 1.1 1 .5 0 .7-.5.4-1-.3-.6-.8-1-1.1-1-.2 0-.4.4-.4 1zM690.4 337.5c-.4 1 .6 2.8 2.9 5 3.4 3.3 7.3 11.3 6.6 13.4-.2.6-1.5.1-2.9-1.2-1.4-1.2-3.8-3.3-5.5-4.6-1.6-1.2-3.1-2.8-3.1-3.4-.1-.7-.2-1.7-.3-2.3-.2-1.8-3.2-2.6-4.7-1.3-2.3 1.9-1.6 3.4 2.4 5.2 2 .9 5.5 3.3 7.7 5.3 7.9 7 9.5 8.4 10.1 8.4.4 0 .2-.6-.4-1.3-.6-.7-1.4-2.8-1.7-4.7-.7-4.2-2.3-8.6-4.4-12-.9-1.3-1.6-3.6-1.6-5 0-1.8-.6-2.6-2.3-2.8-1.3-.2-2.5.3-2.8 1.3zM370.6 338c.3.2 3.3.6 6.7.7 5.3.3 9 .6 11.9 1.2 1.7.3 4.5 6.8 4.8 11.4.7 10.2.4 116.3-.3 120.9-1 5.8-3.4 8.6-8.9 10.3-3.9 1.2-1.7 1.4 21.7 1.7 14.3.1 29.6 0 34-.3l8-.5-8.5-.3c-17.4-.5-20.2-1.5-22.1-8.3-1.9-6.6-2.1-135.8-.3-135.9 2.7-.3 3.2-.4 3.8-.9.2-.3-11.2-.5-25.4-.5s-25.6.2-25.4.5zM423 338.2c0 .4 1.1.7 2.4.6 1.4-.1 2.3-.6 2-.9-.6-1-4.4-.7-4.4.3zM429 338.2c0 .4 3.5.8 7.8.9 15.2.1 22.3 1.5 32.2 6.3 11.9 5.7 18.8 14.8 25.5 33.6 2.2 5.9 2.9 8.5 5 18.5 2 9 1.2 33-1.3 44-2.6 11-8 21.3-15 28.2-8.4 8.3-18 12.2-30.9 12.7-1.8 0-3.3.5-3.3 1 0 .8 11.8.2 19-1 18.5-3.1 34.9-13 44.2-26.6 12-17.8 15.4-38.2 10.3-63.1-1-5-5.5-15.9-8.6-21.1-3.9-6.5-15.9-18.1-23.1-22.4-5.3-3.1-17-7.7-22.3-8.6-14.6-2.7-39.5-4.2-39.5-2.4zM557.1 339c-8.5 3.1-16.4 10-20.2 17.6-7.9 16.2-2.5 37.1 12.4 48 5.8 4.3 8.3 5.6 32.9 17.2 19.9 9.4 25.4 13.8 28.9 23.2 2.5 6.5 2.1 13.5-1 22.4-3.1 8.8-7.6 13.5-15.9 16.6-2.9 1.1-7.1 2-9.2 2-2.2 0-4 .4-4 .8 0 1.9 13.8 0 21.8-3 18.9-7 29.5-29.3 23.8-50.1-2-7.2-2.9-9-7.3-14.4-5.5-6.9-10.8-10-38.5-23.1-30-14.2-36-21.7-32.2-39.8 1.9-9 4.7-13 11.3-16.4 6.4-3.3 5.1-3.8-2.8-1zM579 338c0 .6.7 1 1.5 1s1.5-.2 1.5-.4-.7-.6-1.5-1c-.8-.3-1.5-.1-1.5.4zM583 338.7c0 .4 1.5 1.4 3.3 2.2 10.3 4.4 20.6 18.9 23.3 32.8 1.4 7.1 1.9 2.5 1.9-15-.1-15.4-.3-18.1-1.6-17.7-4.9 1.6-15.9.5-24.6-2.4-1.3-.4-2.3-.4-2.3.1z"/><path d="M713.9 341.3c-.1.7-.3 2.5-.5 4.2-.2 1.6.2 3.5.7 4.2.8.8.7 2.2 0 4.6-1.7 5.1-1.6 9.7.4 14.2 4.1 9.7 4.2 10.7.2 4.7-5.5-8.4-8.2-10.6-13.6-10.8-6.1-.2-14.1-4-14.1-6.6 0-2.3-2.6-3.4-4.5-1.8-1.6 1.4-.9 4 1.2 4 .8 0 3.3 1.1 5.6 2.4 2.3 1.4 5.9 2.8 8 3.1 5.1 1 5.5 2.3 1.3 4-5.1 2.2-13.6 2.2-14.8.1-.5-.9-1.5-1.6-2.3-1.6-1.5 0-3.1 3.7-2 4.8 1 1 14.7.3 18-1 1.7-.6 4.2-2.2 5.6-3.5l2.7-2.5 4.4 5.9c8.8 11.5 9.7 13.3 12.4 26.4 2.8 13.7 4.4 38.1 2.6 39.3-.7.4-.7 1.7-.2 3.5.4 1.6.7 3.1.5 3.3-.1.2-.6 2.7-.9 5.7-.9 7.5-3.5 19.7-4.9 22.9-.6 1.5-1.1 3.1-1.1 3.7-.1 5.3-11 28.7-18.9 40.5-8.4 12.7-22 28.6-17.1 20.1 1-1.8 2.9-4 4.2-4.8 2.7-1.8 3-3.8.3-2.4-3.3 1.8-1.3-3.2 2-5.2 2.9-1.6 3.1-4.4.3-3.3-2.3.9-1.7-4 .7-6.3 1.5-1.4 2.7-1.7 4.3-1.2 2.6 1 4.6.4 4.6-1.5 0-.8-1-1.4-2.4-1.4-3.1 0-4.1-1.4-2.6-3.7 1-1.6 1.1-1.5.6.5-.3 1.8-.2 2.1.8 1.3.7-.6 1.5-.9 1.8-.6.9.9 6.7-6.1 7-8.5.4-3.2-2.4-3.8-5.2-1-1.1 1.1-2.5 1.8-3 1.5-1.9-1.2-4.1 2.7-3.7 6.6.3 2.8-.1 4.3-1.5 5.5-1.7 1.6-1.8 1.5-1.8-4 0-3.1-.4-5.5-.8-5.2-.5.3-.7 2-.4 3.7.4 2.8.2 3.1-1.4 2.5-3.1-1.2-3.6-1.2-4.1.2-.3.8.8 1.8 2.6 2.5 2.3.8 2.9 1.6 2.6 3.2-.3 1.1-.7 3.1-.9 4.5-1.5 8.2-1.8 9.1-3.7 8.5-1.4-.5-1.9-.1-1.9 1.2 0 1.1.5 2.4 1.1 3 1.6 1.6-3 10-7.7 14.3-5.8 5.2-13.4 11.3-17.9 14.3-2.6 1.8-3.4 2.7-2.2 2.7 3 0 15.8-9.3 25.7-18.6 6.2-5.8 21.5-15.4 24.5-15.4.8 0 1.5-.4 1.5-.9 0-.4 1.7-2 3.8-3.3 7-4.7 14.3-12.1 19.3-19.7 2.7-4.1 4.9-8.1 4.9-8.7 0-.7.5-1.4 1.2-1.6.6-.2 1.3-1.3 1.4-2.5.2-1.2 1.9-5.6 3.9-9.8 1.9-4.3 3.4-7.9 3.2-8.1-.2-.2-2.9 4.8-6.1 11.1-10.2 20.2-21.9 33.7-35 40.6-3.3 1.7-7.3 4.3-8.8 5.7-4.2 3.8-3.4 1.6 1.6-4.8 14.3-18.1 26.4-45.3 30.5-68.5 1.3-7.2 4.6-12.2 12-18 5-4 5.7-4.3 6.4-2.7.5 1 2.3 2.6 4 3.5 3.4 1.8 16.8 5.9 17.4 5.3.8-.8-6.5-9.3-10-11.5-2-1.3-3.6-2.5-3.4-2.7.1-.1 1.9-.5 4.1-.8 4.5-.7 9.8-3.6 9.3-5.1-1-3-9.4-.8-14.4 3.8-2.8 2.5-2.8 2.2-.3-2.8 3.1-6 2.4-19.2-.7-15.3-4.1 5.1-6.3 14-4.4 17.6.9 1.7.3 2.5-4.5 6.1-5.7 4.3-7.5 5.1-5.4 2.6 1.2-1.5.5-5.5-1-5.5-1.4 0-2.9 3.3-3.3 7.4-.2 2-1.4 4.9-2.6 6.4l-2.2 2.7.8-2.5c.3-1.4.7-9 .8-17 .1-12.3.5-15.6 2.5-21.8 1.7-5.2 2.9-7.2 4.1-7.2 4.3 0 7.7-3.9 8.5-9.9.7-5.5 1.1-11.1.7-11.5-1.4-1.3-6.7 2.2-9.5 6.2-2.9 4.3-3.8 9-2.7 13.7.3 1.3-3.3 13.6-3.8 13.1-.4-.4-.9-2.8-1.7-9.1-.2-2.2-1-6.2-1.6-8.8-.8-3.9-.8-5.2.5-7 1.7-2.5 2-5.7.5-5.7-.6 0-1.3.7-1.6 1.5-.8 2-2.4 1.9-2.4-.1 0-.8-1.8-6.2-3.9-12-4.1-10.7-4.3-13.3-1.6-18.6 1.6-3.3.9-10.4-1.1-11.2-.8-.3-1.5 0-1.5.7z"/><path d="M695.1 382.4c-.7.8-2.1 1.2-3.2.9-1.5-.4-2.2 0-2.6 1.6-.3 1.2-1 2.1-1.7 2-3-.4-3.7.2-3.4 2.8.2 2.3.7 2.8 2.8 2.5 4.9-.5 5.5-.5 9.3 1.2 5.5 2.4 4.5 1-1.5-2-5-2.5-5.1-2.7-2.9-3.6 1.8-.6 2.9-.4 4.5.9 1.8 1.5 1.7 1.4-.2-.8l-2.3-2.6 2.5.4c2.3.5 2.6.2 2.6-2.1 0-2.9-2-3.5-3.9-1.2zM702.1 383.9c-1.4 2.6 1 4.8 2.9 2.6 1.3-1.6.7-4.5-.9-4.5-.6 0-1.5.9-2 1.9zM301.9 384.2c-.1.7-.1 1.7 0 2.2.1.4-.5 1.9-1.4 3.2-1.8 2.7-1.9 3.4-.5 3.4.6 0 1-.6 1-1.3 0-2 1.3-3.4 4-4.2l2.4-.8-2.5 2.4c-1.4 1.3-1.8 1.9-.9 1.2 1.6-1.2 7.1-1.3 6.3 0-.2.4-2.7 1.9-5.4 3.2-2.7 1.4-4.9 2.8-4.9 3 0 .7 7-2.2 8.5-3.5.9-.7 1.6-.5 2.5.5 1.7 2.1 3.7 1.9 5-.6 1.4-2.4-.2-4.9-3.1-4.9-1.1 0-1.8-.6-1.6-1.3.1-.7-.8-1.2-2.3-1.1-1.4.1-2.9-.5-3.3-1.2-1-1.7-3.7-1.8-3.8-.2zM294.7 385.4c-.7 1.7 1.8 4 3.3 3.1 1.5-.9 1.2-3.2-.6-3.9-2.1-.8-2.1-.8-2.7.8z"/><path d="M698.7 389c.6 2.2 2.3 3.8 2.3 2.1 0-1.7-1.2-4.1-2-4.1-.5 0-.6.9-.3 2zM713.2 388.2c-1.7 1.7-1.5 8 .2 10.4 1.4 1.8 1.5 1.8 2.9-1.4 2.2-5.3-.1-12-3.1-9zM283.9 391.1c-.6 1.2-.9 3.3-.6 4.8 1 4.7 2.5 9.6 2.6 8.3.1-.6 0-1.3-.1-1.5-.1-.1.4-1.3 1.1-2.5 1.9-3.5 2.3-7 1.1-9.2-1.4-2.6-2.6-2.5-4.1.1zM702 390c-.7 4.8-.6 6.1.4 6.9.9.7 1.1 0 .8-2.7-.4-4.4-1-6.3-1.2-4.2zM297.2 393.9c.1 3.2 1.2 4.1 2.1 1.8.3-.7-.1-2.1-.8-3.1-1.2-1.6-1.4-1.5-1.3 1.3z"/><path d="M708.9 396.2c-.3 2.8.4 4.4 3.2 7.5 1.7 2 2.6 3.9 2.2 4.9-.4 1.2-1.8.3-5.9-4.3-2.9-3.2-5.3-5.3-5.4-4.7 0 .5 1.6 2.5 3.5 4.4 4 3.9 4.3 5 1.6 5-2.2 0-3.5 1.5-2.6 2.9.3.6 1.8.6 3.6.1 2.6-.8 3.4-.6 5 1.3 1 1.2 1.8 2.5 1.9 2.8 0 .4 1.1 2.7 2.5 5 2.4 4.3 2.4 4.3 2.3 1.4-.1-1.7.1-4 .6-5.3.5-1.7.4-2.2-.8-2.2-.9 0-1.6.4-1.6 1 0 2.1-1.6.8-3.2-2.5-1-2-1.3-3.5-.7-3.5.6 0 .8-.4.4-.9-.3-.6.5-1.5 1.7-2.2 2.3-1.2 3.8-2.8 3.8-4.2 0-1.2-2.2-.8-3.9.7-2.2 2-3.5.9-4.9-4.2-1.2-4-3.1-5.7-3.3-3zM289.2 398.7c-.6 1.5-1.4 3.8-1.7 5-.7 2.4-2.9 3.1-4 1.3-.3-.6-1.5-1-2.5-1-2.5 0-1.7 2.3 1.5 4 3.3 1.8 3.7 5.3.9 8.7-1.8 2.2-2.3 2.4-2.4 1 0-1.7-1.1-2.2-2.3-1.1-.3.3-.1 1.9.5 3.5 1.3 3.7.4 6.6-1.6 5-1.8-1.5-2.7-.2-1.5 2.1 1 1.9.8 4.3-.8 8.4-.4 1.2-.3 1.5.5 1 .7-.4 1.2-1.6 1.2-2.7 0-1.2 1.2-2.7 3-3.7 3-1.7 4.3-4.6 1.5-3.6-2.3.9-1.8-.7 2.4-7.7 2.3-3.7 4.5-6.2 5.3-6 4.5 1.3 5.8 1.3 5.8-.3 0-.9-.8-1.6-1.8-1.6-3.3 0-3.3-1.3 0-4.7 1.7-1.8 2.8-3.3 2.2-3.3-.5 0-2.8 2.1-5.1 4.7-3.8 4.3-4.3 4.5-4.3 2.4 0-1.3 1.4-3.9 3-5.8 3.1-3.5 3.5-4.9 2.1-7.1-.6-1-1.1-.6-1.9 1.5zM296.7 399.9c-.4 1.7-.3 2.1.5 1.3.5-.5.8-1.6.6-2.3-.3-.8-.7-.3-1.1 1zM696.4 400.5c-1.7 2.6-1.1 4.7 1.1 3.9.7-.3 2.1-1.6 2.9-2.9 1.4-2.1 1.4-2.3-.5-2.8-1.3-.4-2.5.2-3.5 1.8zM299 400.9c0 .5 1.1 2.3 2.4 3.8 2.3 2.6 2.5 2.7 3.2.9.4-1 .3-2.6-.3-3.5-1.1-1.8-5.3-2.8-5.3-1.2z"/><path d="M714 402.1c0 .5.5.7 1 .4.6-.3 1-.8 1-1.1 0-.2-.4-.4-1-.4-.5 0-1 .5-1 1.1zM722.3 423.9c-.8 1.3-1.9 1.8-3.3 1.4-2.9-.8-2.5 1.5.6 2.9 1.4.7 3.2 2.6 4 4.2 1 2.3 1.2 2.4.7.6-.8-3-.8-5.7.2-8.8.9-2.7-.6-2.9-2.2-.3zM536.5 460c0 12.6.3 23 .6 23 .4 0 1-.7 1.3-1.6.5-1.3 1.7-1.5 6.9-1 3.4.3 7.9 1 10.1 1.6 2.1.7 4.7 1.4 5.7 1.6 4.2.9 5.5 1.3 7.2 1.9 3.7 1.5 1.4-.6-3.4-3-2.8-1.5-7.3-4.9-9.9-7.6-5.8-6-13-20.2-15.6-30.7-1-3.9-2.1-7.2-2.4-7.2-.3 0-.5 10.3-.5 23zM711.7 439.1c-3.5 5.7-2.9 14.1 1.7 20.8 1.3 2 2.7 5.3 3 7.3.4 2.1 1.1 3.8 1.5 3.8.5 0 .3-2.1-.5-4.7-1.2-4-1.2-5-.1-5.8.7-.5 1.8-2.4 2.4-4.1 1.2-3.5-.6-10.1-4.4-16.3l-2.1-3.3-1.5 2.3zM754.6 463.2c-1.4 1.9-1.4 2.4-.2 3.7 1.2 1.2.9 2.1-2.2 6.9-2.6 3.9-3.8 5-4 3.8-.2-1 .5-2.8 1.7-4 2-2.1 1.7-4.2-.6-4.1-2.1 0-2.6 1.5-2.4 6.8.2 5.1 0 5.4-5 10.5-2.9 2.8-4.8 5.2-4.1 5.2.6 0 3.7-3 6.9-6.7 3.2-3.6 6.7-7.6 7.8-8.7 1.1-1.1 2-2.6 2.1-3.3.1-.8 1.2-2.9 2.3-4.9 1.6-2.7 1.9-4 1.1-5.5-1.3-2.4-1.5-2.4-3.4.3zM745.2 463.2c-1.4 1.4-1.6 3.8-.2 3.8.5 0 .7.8.3 1.7-.3 1 .3.6 1.5-.9 1.2-1.4 2.2-3.3 2.2-4.2 0-1.9-2.1-2.1-3.8-.4zM251.4 464.4c-.3.9.3 2.7 1.4 4.1l2 2.5.6-2.3c.9-3.3.8-3.5-1.4-4.7-1.6-.9-2.2-.8-2.6.4zM761 466c0 .5-1.4 2.5-3.1 4.5-1.7 1.9-2.6 3.5-2.1 3.5.6 0 1.9-1.1 3-2.5 1.1-1.3 2.2-2.2 2.6-1.8.7.7 4.6-2.6 4.6-3.9 0-.4-1.1-.8-2.5-.8s-2.5.4-2.5 1zM680.7 477.1c-2.3 3.2-1 5.5 2.9 5 .7-.1 1.9 1.7 2.8 4 .9 2.3 1.9 3.9 2.2 3.6.3-.3-.2-2.2-1-4.2-2.5-5.8-2-7.2 1.1-3.9 1.5 1.6 2.4 2.1 2 1.2-.3-1-.1-2 .5-2.4.6-.4.8-.3.4.4-.3.6-.2 1.3.4 1.7 1.6 1 1.2 3.8-.5 3.1-.8-.3-1.5-.1-1.5.3 0 .5.4 1.1 1 1.3.5.1.7 1.3.4 2.5-.4 1.3-.9 2.1-1.3 1.8-.4-.2-.7.5-.7 1.7.1 1.2-.5 2.3-1.1 2.5-.7.3-1.3-.2-1.3-1s-.8-1.7-1.8-1.9c-2.2-.6-6.2.8-6.2 2.1s4.5 2.5 6.5 1.7c1-.4 1.9.2 2.5 1.7l.9 2.2v-2.2c.1-1.2 1.7-3.8 3.6-5.8 1.8-2 2.7-3.4 1.8-3.1-1.3.5-1.4.1-.9-2.5.3-1.8 1.4-3.7 2.3-4.4 1.4-1.1 1.5-1.5.4-2.8-.7-.9-1.9-1.3-2.7-1-.8.3-2.1-.3-2.9-1.3-1.1-1.5-1.6-1.6-2.6-.7-.9.9-1.7.8-3.4-.3-2.1-1.4-2.4-1.3-3.8.7zM315.1 478.6c-1.2.9-2.1 1.1-2.1.5 0-.6-.9-1.1-2-1.1-1.5 0-2 .7-2 2.6 0 2.3-.1 2.4-1.6 1-.8-.9-1.9-1.6-2.4-1.6-1.5 0-2 3.3-.6 4.4 1.1.9 3.6 6.7 3.6 8.4 0 .3-.9-.3-2-1.3s-2-2.4-2-3c0-1.8-3.1-2.8-4.4-1.5-.8.8-.6 1.5.8 2.5 1 .8 2.2 1.2 2.7 1 .4-.3 2.3 1.4 4.3 3.7 2.9 3.4 4.3 4.2 7.3 4.3 2.1.1 4.4 0 5.1-.3 1.3-.4 1.7-3.2.5-3.2-.5 0-1.8-.3-2.9-.6-1.5-.4-2.8.2-4.2 1.7l-2.1 2.2-1.1-2.9c-.6-1.5-.9-4.3-.7-6.1.4-2.9.3-3.2-1-2.1-1.3 1-1.5.9-1.2-.5.2-1 .8-1.8 1.2-1.7.4 0 1.5-.6 2.3-1.5 1.7-1.7 3.4-2 3.4-.6 0 .5-.9 3-2 5.6-2.4 5.6-1.1 5.2 1.5-.5 1-2.3 2.5-4 3.5-4 2.3 0 3.8-1.9 3.3-4-.7-2.6-2.7-3.1-5.2-1.4z"/><path d="M697.8 484.7c-2.2.5-2.4 2.9-.4 3.6 1.8.7 4.3-2 3-3.2-.5-.4-1.7-.6-2.6-.4zM577 486.4c0 .2.7.6 1.5 1 .8.3 1.5.1 1.5-.4 0-.6-.7-1-1.5-1s-1.5.2-1.5.4zM725.3 516.3c-.4.7-1.2 2.1-1.8 3.1-1.4 2.6-11.3 7.5-14.2 7-1.2-.2-2.3 0-2.3.5s.8.8 1.7.7c.9-.2 2.9.3 4.3 1.1 1.5.7 4 1.5 5.6 1.7 1.6.3 3.9.8 5.1 1.1 2.9.9 4.3-2 2.1-4.1-1.3-1.4-1.7-1.4-3.1 0-1.7 1.7-6.4 2.1-8.6.7-1.1-.7-.9-1 .7-1.5 1.1-.4 3.7-1.8 5.8-3.2 2-1.4 4.2-2.3 4.9-2 1.6.6 3.5-1.3 3.5-3.5 0-2.1-2.7-3.2-3.7-1.6zM269 617.5c0 1.1 1.2 1.5 4.5 1.5h4.5v11.4c0 6.3.4 11.7.8 12 2.2 1.3 2.9-1.6 2.8-11.9l-.1-11 4.5-.5c2.5-.3 4.6-1.1 4.8-1.8.1-.9-2.5-1.2-10.8-1.2-9.1 0-11 .3-11 1.5zM304.4 629.2c.1 11.1.3 13.3 1.6 13.3 1.1 0 1.6-1.5 1.8-6.2l.3-6.2 7 .1c4.3.1 6.9.5 6.8 1.2-.1.6-.1 3.4 0 6.3.1 4.2.4 5.1 1.8 4.9 1.6-.3 1.8-1.7 1.8-13.1.1-9.7-.2-12.8-1.3-13.2-1.9-.8-2.2-.1-2.3 5.5-.2 5.6 0 5.4-6.9 5.4-7.1 0-6.9.2-7.2-5.4-.2-3.9-.7-5.4-1.9-5.6-1.4-.3-1.6 1.3-1.5 13zM341.5 629.2v13.2l9.3.1c5 0 9.2-.3 9.2-.7v-1.6c0-.4-3.3-.7-7.3-.7h-7.2l-.3-4.7-.3-4.7h4.8c8.2.1 9.3-.1 9.3-1.4 0-1.1-1.7-1.3-7-1.2l-7 .2V619h7.5c6 0 7.5-.3 7.5-1.5s-1.7-1.5-9.3-1.5h-9.2v13.2zM375.3 628.7c0 7.1.1 13.1.4 13.5.2.4 1 .5 1.8.1 1-.3 1.5-2 1.5-5.4 0-4.8.1-4.9 3-4.9 1.7 0 3 .3 3 .8 0 1.5 9 10.3 10 9.7 1.2-.8.5-2-4.3-7.2l-3-3.2 2.7-.7c3.2-.8 6.6-4.9 6.6-7.9 0-1.4-1.3-3.4-3.1-4.9-2.7-2.3-3.9-2.6-10.8-2.6h-7.8v12.7zm15.8-8.7c2.5 1.4 2.6 6.6.1 7.9-1.5.8-7.5 1.5-10.9 1.2-.9-.1-1.3-1.9-1.3-5.4v-5.3l5.1.3c2.8.2 5.9.8 7 1.3zM419.2 617.2c-.9 1.3-9.2 23.5-9.2 24.9 0 1.9 3.7-.6 4.7-3 .9-2.6 1.3-2.8 7.1-2.6 3.4 0 6.3.3 6.4.5.2.3.9 1.7 1.5 3.1.6 1.4 1.8 2.6 2.7 2.6.9 0 1.6-.1 1.6-.1 0-.1-1.4-3.9-3.1-8.6-1.7-4.7-3.8-10.6-4.7-13.3-1.2-3.7-2.1-4.7-3.8-4.7-1.2 0-2.6.6-3.2 1.2zm5.4 8.5c1 3.2 2 6.2 2.2 6.8.1.6-2.1 1.1-5.2 1.1l-5.4.1 1-2.6c.6-1.4 1.7-4 2.4-5.8.8-1.7 1.4-3.6 1.4-4.2 0-2.9 1.8-.5 3.6 4.6zM447.9 620.7c-.1 9.4.2 20.7.7 21.5.3.4 1 .5 1.7.2.8-.3 1.3-2.1 1.2-4.9l-.2-4.5h4.2c8.4 0 12.5-2.8 12.5-8.5 0-6.1-4.1-8.5-14.1-8.5H448l-.1 4.7zm15.5.5c3.2 5 0 8.8-7.4 8.8h-4.7l.1-5.5.1-5.5h5.2c4.3 0 5.5.4 6.7 2.2zM481.9 618.2c.5 1.3 2.3 4.8 4.1 7.8 2.5 4.1 3.3 6.8 3.5 10.8 0 2.8.4 5.2.8 5.2h1.7c.6 0 1-2.1 1-4.6 0-3.7 1-6.5 4.6-13 4-7.4 4.3-8.4 2.6-8.4-1.4 0-2.9 1.7-5 5.7-1.6 3.1-3.3 5.8-3.8 6-.5.2-2.2-2.3-3.9-5.5-1.6-3.1-3.8-5.8-4.8-6-1.4-.3-1.6.1-.8 2zM535.9 616.2c-.4.9-.3 25.8.1 25.9.3.1 3.6.2 7.3.3 5 .1 7.6-.3 9.8-1.6 3.9-2.4 4.2-6.6.9-10.3-1.7-1.9-1.7-2.1.2-4 2.3-2.4 1.7-6.1-1.4-8.8-1.5-1.3-3.8-1.7-9.4-1.7-4.1 0-7.5.1-7.5.2zm14.8 3.9c1.9 1.6 1.6 4.6-.7 6.2-1.6 1.1-5.8 1.4-10.2.8-1.3-.2-.9-7.9.4-8.3 2-.7 9.1.2 10.5 1.3zm1 12.1c1.3 1.5 1.4 2.3.5 4.3-.6 1.4-2 2.5-2.9 2.6-1 0-3.7.2-6 .4l-4.3.3v-9.9l5.5.2c3.9.2 6 .8 7.2 2.1zM571.9 616.7c-.4 2.4-.3 25.3.1 25.4.3.1 4.4.2 9.2.3 6.3.1 8.9-.2 9.2-1.1.6-1.5.9-1.5-7.4-1.8-3.6-.2-6.8-.4-7.2-.4-.5-.1-.8-2.1-.8-4.6V630l4.8.1c7.6.2 9.2 0 9.2-1.4 0-1-1.8-1.3-6.7-1.3l-6.8.1-.3-4.3-.3-4.2h7.5c6.1 0 7.6-.3 7.6-1.5s-1.7-1.5-9-1.5c-4.9 0-9.1.3-9.1.7zM611.9 618.7c-.6 1.5-1.7 4.6-2.4 6.8-.8 2.2-2.5 6.8-3.8 10.2-2 4.8-2.2 6.3-1.2 6.7 1.5.5 3-.9 3.9-3.9.5-1.8 1.4-2.1 6.8-2 5.7 0 6.3.2 7.7 2.9.9 1.6 2 2.8 2.4 2.7.4 0 1.1-.1 1.5-.1.5 0-1.3-5.7-3.9-12.8-4.3-11.4-5-12.7-7.3-13-2.1-.3-2.8.3-3.7 2.5zm6.3 7.5c1 2.9 2 5.7 2.1 6.2.1.5-2.2 1-5 1.1-2.9 0-5.3.1-5.3 0 0 0 .9-2.5 2-5.5 1.2-3 2.3-6.1 2.6-6.9.7-2 1.5-.8 3.6 5.1zM641 624.8c0 10.7 1.2 14.8 5.1 16.7 4.8 2.6 10.1 1.9 13.4-1.5 2.8-3 3-3.5 3.1-13.6.2-9.4.1-10.5-1.4-10.2-1.4.3-1.8 2-2.2 9.8-.3 5.2-1 10.3-1.4 11.3-1.7 3.7-9.6 3.4-11.7-.5-.6-1.2-1.2-6.2-1.3-11.2-.1-7.8-.3-9.1-1.8-9.4-1.6-.3-1.8.6-1.8 8.6zM676 617.5c0 1.1 1.1 1.5 4.5 1.5h4.5v11.4c0 6.3.4 11.7.8 12 2.1 1.3 3-1.5 3-9.9 0-14.7-.4-13.5 4.8-13.5 3.2 0 4.4-.4 4.2-1.3-.3-.8-3.7-1.3-11.1-1.5-9.1-.2-10.7 0-10.7 1.3zM713.7 624.2c3.9 6.9 4.7 9.1 4.5 12.9-.1 3.9.2 4.8 1.8 5.2 1.8.5 2 0 2-5.1 0-4.7.6-6.6 4-12.3 4.3-7.3 4.9-9.2 2.4-8.7-.9.2-3 2.9-4.6 6-1.7 3.2-3.3 5.8-3.7 5.8-.4 0-2.1-2.6-3.8-5.8-2-3.7-3.8-5.8-5.2-6-1.8-.3-1.5.6 2.6 8zM422 667.7c-3 1.1-6 4.7-6 7.3 0 4.1 2 5.8 8.9 7.4 7.3 1.7 9.6 3.4 8.7 6.4-1.7 5.3-14.6 3.9-14.6-1.5 0-.7-.9-1.3-1.9-1.3-1.8 0-1.9.3-.9 3 1.4 4.2 5.9 6.3 12 5.8 5.4-.6 8.3-2.7 9.1-6.5.6-3.3-3.6-7.7-7.8-8.1-8-.8-11.5-3.4-9.5-7.2 2.2-4 11.6-3.6 12.6.6.6 2.3 2.3 3.1 3.7 1.8 1-1-2-6.1-4-6.9-2.5-1-8.5-1.5-10.3-.8zM526.4 668.8c-10.1 4.8-9.2 21.8 1.2 25.2 13.9 4.6 24.4-7.9 17.5-20.8-2.7-5-12.7-7.4-18.7-4.4zm12.7 3.3c6.4 3.4 5.8 15.8-.8 18.8-7.3 3.3-15.3-1.2-15.5-8.8-.3-9.2 8.2-14.4 16.3-10zM458.4 672.7c-1 2.6-3 8.2-4.6 12.3-1.5 4.1-2.8 8-2.8 8.7 0 2.2 2.4.9 4.1-2.2 1.6-2.8 2.1-3 7.8-3 5.6-.1 6.2.1 6.7 2.2.6 2.3 3.6 4.7 4.6 3.7.3-.2-.1-2.1-.8-4.2-8-22-7.8-21.7-10.6-22-2.3-.3-2.8.2-4.4 4.5zm7.5 6.8c1.2 3.2 2.1 6 2.1 6h-10.8l2.4-6.3c1.3-3.6 2.4-6.7 2.4-7 0-1.8 2.1 2.1 3.9 7.3zM488.8 669.2c-.3 1-.2 22.5.1 24.8.1.3 3.8.5 8.3.5 7.1 0 8.3-.3 8.6-1.8.3-1.5-.4-1.7-6.6-1.5l-6.9.3-.1-10.5c0-13.4 0-13-1.6-13-.8 0-1.6.6-1.8 1.2zM562.9 668.2c-.1.2-.2 6-.3 13-.1 8.9.2 12.9 1 13.2 2.1.8 2.4-.6 2.4-11.2v-10.5l2.3 3.4c1.2 1.9 4.2 6.6 6.5 10.6 4 6.7 6.4 8.9 8.1 7.9.4-.3.7-6.2.7-13.3-.1-10.8-.3-12.8-1.7-13.1-1.3-.2-1.5 1.2-1.6 9.8 0 5.5-.2 10.2-.4 10.5-.3.2-3.3-4.3-6.8-10.1-4.4-7.3-6.9-10.4-8.2-10.4-1.1 0-2 .1-2 .2z"/></svg>